
<svg fill="none" height="18" viewBox="0 0 18 18" width="18" xmlns="http://www.w3.org/2000/svg"><path d="m7.44141 1.61337.86718-.867185c.36719-.367187.96094-.367187 1.32422 0l7.59379 7.589845c.3672.36719.3672.96094 0 1.32422l-7.59379 7.59375c-.36719.3672-.96093.3672-1.32422 0l-.86718-.8672c-.3711-.3711-.36329-.9766.01562-1.3398l4.70707-4.4844h-11.2266c-.519531 0-.9375-.418-.9375-.93751v-1.25c0-.51953.417969-.9375.9375-.9375h11.2266l-4.70707-4.48437c-.38281-.36328-.39062-.96875-.01562-1.33985z" fill="#106E26"/></svg>